<?xml version="1.0" encoding="UTF-8"?>
<svg id="Layer_2" data-name="Layer 2" xmlns="http://www.w3.org/2000/svg" viewBox="0 0 321.91 83.51">
  <defs>
    <style>
      .cls-1 {
        fill: #fff;
        stroke-width: 0px;
      }
    </style>
  </defs>
  <g id="Layer_1-2" data-name="Layer 1">
    <g>
      <path class="cls-1" d="m264.62,53.91c3.68-7.67,7.1-14.77,10.51-21.88.75-1.57,1.63-3.09,2.21-4.71.93-2.56,2.47-3.53,5.52-2.33,0,7.42,0,14.97,0,22.52,0,2.98-.1,5.97.03,8.95.12,2.69-.6,4.17-4.03,3.03v-24.17c-.29-.08-.59-.16-.88-.23-2.49,5.18-4.99,10.36-7.48,15.54-1.13,2.35-2.11,4.78-3.45,7-.59.98-1.87,2-2.93,2.1-.77.08-2.02-1.15-2.48-2.08-3.35-6.78-6.55-13.64-9.81-20.47-.25-.53-.58-1.02-1.47-2.55v25.06h-4.23V24.86c2.77-1.06,4.28-.15,5.49,2.49,3.46,7.56,7.17,15,10.81,22.48.58,1.19,1.25,2.32,2.2,4.07Z"/>
      <path class="cls-1" d="m197.82,55.65c.76,1.18,1.54,2.4,2.68,4.18-1.63,0-3.14.45-3.68-.08-2.56-2.51-4.94-.6-7.39-.07-10.48,2.28-20.83-4.6-22.14-14.71-1.43-11.02,6.57-20.83,17.58-21.02,6.64-.11,12.13,2.83,15.67,8.55,3.52,5.69,3.81,11.71.73,17.72-.95,1.86-2.25,3.55-3.45,5.42Zm-3.05-3.81c5.22-4.86,5.58-13.31.86-18.85-4.88-5.74-13.02-6.65-18.73-2.1-6.27,5-7.17,13.5-2.15,20.29,3.82,5.16,11.14,6.53,16.58,2.91-2.28-2.83-4.56-5.65-6.97-8.65,6.4-1.93,6.95,4.14,10.4,6.4Z"/>
      <path class="cls-1" d="m138.28,59.29c-3,1.31-4.79.48-5.38-2.24-1.02-4.7-3.76-6.47-8.48-5.67-1.69.29-3.51.26-5.21,0-5.39-.79-9.24.44-10.62,6.47-.25,1.09-2.7,1.69-4.13,2.51-.26-.36-.52-.71-.78-1.07,4.92-11.07,9.81-22.14,14.79-33.19.93-2.06,3.73-2.45,4.57-.62,5.16,11.21,10.16,22.49,15.24,33.79Zm-25.01-11.62h15.47c-2.6-5.95-5.02-11.47-7.75-17.73-2.75,6.31-5.15,11.83-7.72,17.73Z"/>
      <path class="cls-1" d="m241.6,59.29c-2.91,1.21-4.75.61-5.37-2.18-1.07-4.87-3.96-6.64-8.81-5.72-1.32.25-2.75.19-4.1.01-5.63-.75-10.19-.06-11.53,6.75-.19.97-2.65,1.49-4.07,2.22-.25-.34-.49-.68-.74-1.03,4.21-9.48,8.41-18.96,12.62-28.44.75-1.7,1.39-3.45,2.27-5.08,1.05-1.93,3.71-2.02,4.61-.06,5.09,11.11,10.06,22.28,15.11,33.52Zm-9.54-11.52c-2.58-5.97-5-11.55-7.74-17.87-2.75,6.33-5.2,11.98-7.76,17.87h15.5Z"/>
      <path class="cls-1" d="m321.91,59.34c-3.24,1.27-4.9.18-5.49-2.45-1.02-4.49-3.55-6.29-8.22-5.55-2.55.41-5.27.4-7.83,0-4.29-.67-6.46,1.14-7.43,5.08-.64,2.61-1.97,4.29-5.36,3.07.26-.85.43-1.76.8-2.58,4.39-9.98,8.77-19.96,13.3-29.88.49-1.08,1.91-2.23,3.02-2.37.77-.1,2.13,1.3,2.59,2.32,4.91,10.68,9.69,21.42,14.61,32.36Zm-17.33-29.53c-2.7,6.32-5.14,12.03-7.65,17.91h15.39c-2.61-6.04-5.05-11.69-7.74-17.91Z"/>
      <path class="cls-1" d="m146.8,55.74h15.63v3.91h-19.53V24.66h3.9v31.08Z"/>
      <path class="cls-1" d="m39.56,6.45c-.02,3.48-2.67,6.08-6.17,6.06-3.73-.02-6.24-2.65-6.14-6.43C27.33,2.8,30.38-.12,33.58,0c3.3.13,6.01,3.04,5.98,6.45Z"/>
      <path class="cls-1" d="m50.68,83.51c-3.57-.02-6.16-2.58-6.16-6.06,0-3.29,2.9-6.04,6.32-6.01,3.34.03,6.24,2.92,6.2,6.19-.04,3.38-2.78,5.91-6.36,5.88Z"/>
      <path class="cls-1" d="m6.07,44.04c3.21-.04,6.19,2.94,6.2,6.22.02,3.37-2.77,6.23-6.1,6.27C2.82,56.56.06,53.8,0,50.34c-.06-3.37,2.72-6.26,6.07-6.3Z"/>
      <path class="cls-1" d="m84.17,33.85c-.08,3.43-2.79,5.97-6.3,5.88-3.58-.09-5.94-2.6-5.88-6.25.05-3.41,2.87-6.1,6.26-5.99,3.38.11,6,2.93,5.93,6.36Z"/>
      <path class="cls-1" d="m14.47,65.03c-.05,2.58-2.44,4.92-5.07,4.95-2.81.03-5.23-2.42-5.18-5.22.05-2.61,2.43-4.96,5.08-5,2.76-.05,5.22,2.46,5.17,5.28Z"/>
      <path class="cls-1" d="m70.59,74.75c-.3,2.82-2.9,4.83-5.81,4.47-2.65-.32-4.7-2.87-4.43-5.49.29-2.77,2.95-4.82,5.81-4.48,2.63.32,4.7,2.89,4.43,5.5Z"/>
      <path class="cls-1" d="m9.27,30.41c2.74-.03,5.05,2.07,5.19,4.73.15,2.73-2.29,5.11-5.19,5.07-2.61-.03-5-2.36-5.05-4.92-.05-2.52,2.37-4.85,5.05-4.89Z"/>
      <path class="cls-1" d="m79.78,18.77c.08,2.74-2,5-4.75,5.14-2.77.14-5.02-1.89-5.17-4.66-.16-3.05,1.86-5.23,4.89-5.27,2.86-.03,4.94,1.95,5.03,4.79Z"/>
      <path class="cls-1" d="m40.74,74.41c-.06,2.75-2.22,4.85-4.99,4.86-2.88,0-5.06-2.29-4.98-5.24.08-2.83,2.15-4.83,4.98-4.82,3,.01,5.05,2.15,4.99,5.2Z"/>
      <path class="cls-1" d="m23.66,9.54c.03,2.7-2.16,5.06-4.81,5.17-2.66.11-5.16-2.45-5.12-5.25.04-2.64,2.4-4.98,5-4.96,2.66.02,4.9,2.3,4.93,5.03Z"/>
      <path class="cls-1" d="m79.78,48.62c.02,2.74-2.13,4.94-4.88,4.99-2.88.05-5.1-2.24-5.03-5.19.06-2.8,2.17-4.79,5.03-4.75,2.77.04,4.86,2.16,4.89,4.96Z"/>
      <path class="cls-1" d="m53.45,9.73c-.05,2.54-2.54,4.99-5.05,4.98-2.76,0-5.06-2.55-4.93-5.44.12-2.66,2.57-4.9,5.2-4.76,2.62.14,4.84,2.56,4.79,5.22Z"/>
      <path class="cls-1" d="m65.96,63.12c-.87-1.35-2.59-2.87-2.37-4.02.24-1.29,2.27-3.14,3.46-3.1,1.19.05,3.08,2.06,3.21,3.36.11,1.18-1.73,2.54-2.71,3.83l-1.58-.07Z"/>
      <path class="cls-1" d="m24.44,70.45c-.9-1.37-2.59-2.81-2.47-4.08.13-1.32,2.01-2.48,3.12-3.71,1.2,1.19,3.21,2.28,3.36,3.59.15,1.27-1.6,2.77-2.52,4.17-.5,0-1,.02-1.5.03Z"/>
      <path class="cls-1" d="m66.94,13.3c-1.68-2.36-3.48-3.79-3.35-5.01.14-1.28,2.13-3.28,3.31-3.28,1.2,0,3.21,1.96,3.36,3.24.15,1.21-1.65,2.66-3.32,5.04Z"/>
      <path class="cls-1" d="m71.14,66.36c2.36-1.76,3.78-3.62,4.93-3.46,1.31.18,3.28,2.14,3.3,3.35.01,1.22-1.89,3.25-3.19,3.46-1.14.19-2.62-1.64-5.04-3.35Z"/>
      <path class="cls-1" d="m59.89,13.52c.85,1.39,2.52,2.91,2.32,4.13-.21,1.28-2.11,2.88-3.48,3.13-.82.15-2.85-2.03-2.9-3.21-.05-1.33,1.53-2.72,2.4-4.08.55,0,1.1.02,1.66.03Z"/>
      <path class="cls-1" d="m7.26,21.61c-.88-1.34-2.48-2.71-2.43-4.01.05-1.22,1.84-2.37,2.87-3.55,1.26,1.09,3.3,2.03,3.55,3.32.24,1.2-1.43,2.77-2.27,4.17-.57.02-1.15.05-1.73.07Z"/>
      <path class="cls-1" d="m18.13,20.66c.84,1.39,2.4,2.82,2.31,4.15-.07,1.18-2.16,3.28-3.01,3.13-1.36-.25-3.25-1.93-3.42-3.2-.16-1.23,1.56-2.72,2.45-4.09l1.67.02Z"/>
      <path class="cls-1" d="m16.42,79.58c-.88-1.34-2.6-2.81-2.41-3.99.2-1.28,2.05-2.96,3.4-3.18.88-.15,2.95,1.91,3.03,3.08.09,1.3-1.46,2.72-2.3,4.08-.57,0-1.14,0-1.72,0Z"/>
      <path class="cls-1" d="m60.99,2.18c-1.4.96-2.2,1.92-3.01,1.93-.66.01-1.96-1.23-1.87-1.7.16-.86,1.08-2.06,1.82-2.17.72-.11,1.62.97,3.06,1.94Z"/>
      <path class="cls-1" d="m64.49,23.4c1.09,1.35,2.07,2.05,2.17,2.86.07.57-1.11,1.86-1.63,1.81-.83-.08-2.05-.89-2.24-1.61-.17-.65.83-1.6,1.71-3.06Z"/>
    </g>
  </g>
</svg>